# xmcd
#
# Track frame offsets:
#	150
#	10657
#	22147
#	37954
#	52269
#	64435
#	79915
#	89067
#	109665
#	122607
#	141248
#	152693
#	174141
#	184143
#	197636
#	213316
#	227254
#	237314
#	249110
#	264913
#	282886
#	300328
#
# Disc length: 4221 seconds
#
# Revision: 1
# Processed by: cddbd v1.5.2PL0 Copyright (c) Steve Scherf et al.
# Submitted via: EasyCDDAExtractor 16.0.9.1
#
DISCID=24107b16
DTITLE=In Tune - Acoustic Moods
DYEAR=2006
DGENRE=Instrumental
TTITLE0=The Godfather
TTITLE1=Love Story
TTITLE2=La Paloma
TTITLE3=Ei Conder Pasa
TTITLE4=The Sound Of Silence
TTITLE5=Moon River
TTITLE6=Cielito Lindo
TTITLE7=Casablanca
TTITLE8=Yesterday
TTITLE9=Feeling
TTITLE10=Pour Elise
TTITLE11=Ojds De Espana
TTITLE12=Anne'song
TTITLE13=Marina
TTITLE14=Quelqiel Ntal Foul Anna
TTITLE15=Guantanamera
TTITLE16=Aquellos Ojos Verdes
TTITLE17=Historia De Un Amor
TTITLE18=Summer Kisses Summer Tears
TTITLE19=I Just Call To Say I love You
TTITLE20=More Than I Can Say
TTITLE21=I Will Follow You
EXTD=
EXTT0=
EXTT1=
EXTT2=
EXTT3=
EXTT4=
EXTT5=
EXTT6=
EXTT7=
EXTT8=
EXTT9=
EXTT10=
EXTT11=
EXTT12=
EXTT13=
EXTT14=
EXTT15=
EXTT16=
EXTT17=
EXTT18=
EXTT19=
EXTT20=
EXTT21=
PLAYORDER=
